<?xml version="1.0" encoding="UTF-8" standalone="no"?>
<!-- Created with Inkscape (http://www.inkscape.org/) -->

<svg
   width="394.73788"
   height="326.74487"
   id="svg2"
   sodipodi:version="0.32"
   inkscape:version="1.1.2 (0a00cf5339, 2022-02-04)"
   sodipodi:docname="EHU.svg"
   version="1.0"
   xmlns:inkscape="http://www.inkscape.org/namespaces/inkscape"
   xmlns:sodipodi="http://sodipodi.sourceforge.net/DTD/sodipodi-0.dtd"
   xmlns="http://www.w3.org/2000/svg"
   xmlns:svg="http://www.w3.org/2000/svg"
   xmlns:rdf="http://www.w3.org/1999/02/22-rdf-syntax-ns#"
   xmlns:cc="http://creativecommons.org/ns#"
   xmlns:dc="http://purl.org/dc/elements/1.1/">
  <defs
     id="defs4" />
  <sodipodi:namedview
     id="base"
     pagecolor="#ffffff"
     bordercolor="#666666"
     borderopacity="1.0"
     gridtolerance="10000"
     guidetolerance="10"
     objecttolerance="10"
     inkscape:pageopacity="0.0"
     inkscape:pageshadow="2"
     inkscape:zoom="0.45961941"
     inkscape:cx="80.501387"
     inkscape:cy="550.45543"
     inkscape:document-units="px"
     inkscape:current-layer="layer2"
     inkscape:window-width="1920"
     inkscape:window-height="1011"
     inkscape:window-x="0"
     inkscape:window-y="0"
     showguides="true"
     inkscape:guide-bbox="true"
     width="1250px"
     inkscape:pagecheckerboard="0"
     showgrid="false"
     fit-margin-top="0"
     fit-margin-left="0"
     fit-margin-right="0"
     fit-margin-bottom="0"
     inkscape:window-maximized="1" />
  <metadata
     id="metadata7">
    <rdf:RDF>
      <cc:Work
         rdf:about="">
        <dc:format>image/svg+xml</dc:format>
        <dc:type
           rdf:resource="http://purl.org/dc/dcmitype/StillImage" />
      </cc:Work>
    </rdf:RDF>
  </metadata>
  <g
     inkscape:groupmode="layer"
     id="layer2"
     inkscape:label="curve"
     style="display:inline;opacity:1"
     transform="translate(-194.33677,-52.16297)">
    <path
       style="fill:#000000;fill-opacity:1;fill-rule:evenodd;stroke:#000000;stroke-width:1.003;stroke-linecap:round;stroke-linejoin:round;stroke-miterlimit:4;stroke-dasharray:none;stroke-opacity:1"
       d="m 341.52937,180.48791 c 7.71584,0.96448 5.97026,1.65176 7.71584,-3.85792 1.55516,-4.90865 5.57898,-23.09561 5.10489,-34.72127 -0.3464,-8.49436 -0.26581,-6.18375 -7.03385,-8.9628 -6.98223,-2.86701 -18.04262,-4.53991 -19.97158,-4.53991 -1.92896,0 -20.23495,-1.51952 -30.18136,-1.92896 -5.8575,-0.24112 -8.4392,-1.44672 -8.68032,-6.75136 -0.26025,-5.72544 -0.2693,-8.54254 0,-14.46719 0.24112,-5.304644 -0.48224,-8.198084 -9.64479,-7.715844 -21.7189,1.1431 -60.62907,1.2742 -76.19389,1.92896 -3.86203,0.16246 -8.50982,-1.44672 -7.71584,8.680324 2.67767,34.15302 1.05258,92.68847 3.17593,128.27578 0.2885,4.83523 2.87336,14.19053 11.45674,14.0677 5.26706,-0.0754 31.40418,1.7476 43.23611,2.61094 6.94107,0.50648 6.35186,4.30589 6.35186,6.23485 0,1.92896 0.0175,18.67399 0.11701,27.47347 0.0827,7.31634 2.46756,7.76441 7.03384,11.33974 2.26984,1.77725 7.76578,7.08102 13.50272,9.64479 2.65942,1.18847 5.66686,2.9254 10.09277,3.29294 10.43002,0.86614 12.56434,0.69612 18.15963,0.56498 5.1231,-0.12007 7.5211,-1.98746 8.39782,8.04679 1.3036,14.91992 1.49532,38.02573 1.24697,51.18597 -0.11701,6.20057 -0.62262,6.29837 6.46887,6.35186 23.55219,0.19655 62.44289,2.00904 88.05014,0.68199 7.51522,-0.38946 12.21117,-0.51816 12.93773,-18.6076 1.01796,-25.34477 -0.50216,-36.70443 0,-53.44588 0.31372,-10.45919 8.2311,-13.55452 14.06769,-14.0677 22.9019,-2.01365 58.07179,-3.95475 71.37149,-3.85792 5.9295,0.0432 6.85779,-3.27366 10.7263,-9.07981 3.54374,-5.31871 1.74349,-2.5654 4.1404,-7.59883 2.24071,-4.70539 2.26961,-5.97899 2.49394,-10.89177 0.2825,-6.18637 -0.44037,-6.03571 0,-10.4438 0.4146,-4.15006 0.70633,-4.9878 4.53991,-6.46886 4.99289,-1.92896 4.38863,-1.72921 10.65774,-1.24697 6.26912,0.48224 8.55224,2.78414 14.41873,3.85792 7.2921,1.33473 9.72202,0.84036 14.0677,-1.24697 2.27243,-1.09151 6.08552,-2.18861 11.00877,-4.53991 5.2219,-2.49394 5.70414,-5.11077 5.78688,-11.57376 0.32771,-25.59752 -0.0409,-65.7473 0,-90.66107 0.005,-3.05304 0.41684,-8.02381 -5.43585,-8.8458 -8.80586,-1.23675 -22.50616,-4.03912 -32.46135,-4.65692 -9.10405,-0.56498 -11.09653,-4.11617 -12.82072,-5.78688 -4.55185,-4.41064 -4.57943,-4.59979 -8.39783,-9.07981 -3.45841,-4.05767 -5.51944,-4.34016 -12.25574,-4.4229 -16.34708,-0.20079 -46.6576,0.31215 -53.5629,0 -6.73633,-0.30452 -5.18763,0.44797 -5.55286,8.28082 -0.32155,6.89613 -1.23523,14.92338 -0.68199,17.59465 1.24698,6.0209 5.84539,5.30464 8.28082,5.66987 5.03262,0.75471 2.40348,0.56941 9.6448,1.24697 8.48558,0.79398 12.14861,2.9504 20.2056,3.97493 7.54534,0.95946 9.97576,1.3439 10.65775,6.6828 0.24441,1.91342 4.8378,23.69397 4.65692,33.02633 -0.14125,7.28709 -1.96324,8.71459 -3.85792,9.07982 -5.7216,1.10292 -13.44987,0.45045 -19.4066,0.56498 -4.56415,0.0878 -5.10489,-0.53573 -5.66987,-3.6239 -1.10275,-6.02762 -1.36398,-17.02967 -1.36398,-18.95863 0,-5.33892 -1.70519,-4.22422 -4.30589,-4.4229 -5.46916,-0.41784 -15.34495,-0.34836 -21.90054,-0.56498 -3.54116,-0.11701 -7.77936,0.26328 -7.26787,6.23485 1.20815,14.10483 2.31001,37.03117 3.85792,49.70497 0.36523,2.99037 -0.23364,3.13321 6.46886,3.17593 3.72799,0.0238 6.12276,0.20942 16.23068,-0.68199 3.40949,-0.30068 5.32888,-1.22776 5.55286,4.30589 0.20646,5.10073 0.11701,11.24279 0.11701,15.10071 0,4.53991 2.85916,10.32678 -3.17593,10.77475 -11.44538,0.84957 -38.84385,2.95048 -40.74216,3.29295 -10.45835,1.88672 -10.31306,-2.78738 -10.77476,-8.96281 -0.14382,-1.92359 -1.11038,-13.48092 -1.36398,-20.65357 -0.13622,-3.8529 -8.1638,-6.35186 -10.09277,-6.35186 -1.92895,0 -34.05089,-2.78386 -47.09402,-3.97493 -6.88256,-0.6285 -7.03384,2.9419 -7.71583,8.96281 -0.21711,1.9167 0.14349,12.82494 0.68199,17.47764 0.73862,6.38181 3.02507,5.00144 7.59882,5.10489 3.65817,0.0827 4.34269,0.24785 9.76181,0.68199 3.82866,0.30672 10.33166,2.2027 10.32678,12.13873 -0.009,16.51317 0.7331,34.87905 0.56499,48.45801 -0.0827,6.68281 -3.74092,6.91683 -7.03385,6.91683 -1.92896,0 -11.98613,-1.00909 -18.60761,-1.24697 -2.885,-0.10364 -5.7642,-2.71481 -6.46886,-9.6448 -0.63336,-6.22876 -0.11701,-18.15963 -0.11701,-20.08859 0,-6.0209 -2.1429,-6.23484 -7.48182,-6.23484 -1.92896,0 -36.77714,-1.44223 -38.69619,-1.24698 -6.7029,0.68199 -8.96281,-1.24696 -9.6448,-7.83284 -0.39738,-3.8374 -1.2765,-8.56929 -0.68199,-13.61973 0.42373,-3.59966 -0.61041,-5.60939 5.10489,-6.23484 6.73424,-0.73697 15.14043,-3.21299 18.72461,-5.2219 1.94346,-1.08929 2.09946,-2.60385 1.92896,-5.78688 -0.4257,-7.94739 -0.51281,-18.08296 -2.61095,-26.04095 -2.12871,-8.07396 -6.11861,-3.56295 -14.74968,-1.92896 -7.88083,1.49196 -10.19773,3.36038 -18.6076,-0.28249 -6.44304,-2.7909 -16.45471,-6.13094 -9.07982,-18.04262 4.24114,-6.85016 12.34485,-26.6136 14.1847,-30.86335 2.48518,-5.74032 4.8224,-4.58128 9.6448,-2.89344 4.55735,1.59507 6.028,1.2056 9.6448,2.89344 3.6168,1.68785 4.29668,2.17835 4.82239,4.8224 0.24112,1.2127 0.0567,0.33377 0,4.8224 -0.043,3.40968 -0.96447,5.30464 4.8224,5.78688 2.28455,0.19038 12.59037,3.02051 19.28959,3.85792 z"
       id="path1916"
       sodipodi:nodetypes="csssssssssssssssssssssssssssssssssssssssssssssssssssssssssssssssssssssssssssssssssssssssssssssssss" />
    <text
       xml:space="preserve"
       style="font-style:normal;font-weight:normal;line-height:0%;font-family:'Bitstream Vera Sans';fill:#000000;fill-opacity:1;stroke:none;stroke-width:1px;stroke-linecap:butt;stroke-linejoin:miter;stroke-opacity:1"
       x="237.88069"
       y="78.149025"
       id="text5494"
       transform="scale(1.003089,0.99692)"><tspan
         sodipodi:role="line"
         id="tspan5498"
         x="237.88069"
         y="78.149025"
         style="font-style:normal;font-variant:normal;font-weight:normal;font-stretch:normal;font-size:35.4251px;line-height:100%;font-family:'Nimbus Sans L';text-align:start;writing-mode:lr-tb;text-anchor:start">eman ta zabal zazu</tspan></text>
  </g>
</svg>
